<mxfile host="app.diagrams.net" modified="2024-05-15T08:59:27.738Z" agent="Mozilla/5.0 (X11; Ubuntu; Linux x86_64; rv:125.0) Gecko/20100101 Firefox/125.0" etag="TYi98bLFRwKgNyAZbQx7" version="24.4.0" type="device">
  <diagram id="C5RBs43oDa-KdzZeNtuy" name="Page-1">
    <mxGraphModel dx="2101" dy="607" grid="1" gridSize="10" guides="1" tooltips="1" connect="1" arrows="1" fold="1" page="1" pageScale="1" pageWidth="827" pageHeight="1169" math="0" shadow="0">
      <root>
        <mxCell id="WIyWlLk6GJQsqaUBKTNV-0" />
        <mxCell id="WIyWlLk6GJQsqaUBKTNV-1" parent="WIyWlLk6GJQsqaUBKTNV-0" />
        <mxCell id="vQBh3-ftXNwlG3UdboAN-0" value="&lt;font style=&quot;font-size: 20px;&quot;&gt;File&lt;/font&gt;" style="swimlane;fontStyle=1;align=center;verticalAlign=middle;childLayout=stackLayout;horizontal=1;startSize=29;horizontalStack=0;resizeParent=1;resizeParentMax=0;resizeLast=0;collapsible=0;marginBottom=0;html=1;whiteSpace=wrap;" vertex="1" parent="WIyWlLk6GJQsqaUBKTNV-1">
          <mxGeometry x="710" y="170" width="190" height="180" as="geometry" />
        </mxCell>
        <mxCell id="vQBh3-ftXNwlG3UdboAN-2" value="&lt;ul style=&quot;font-size: 16px;&quot;&gt;&lt;li&gt;&lt;font style=&quot;font-size: 16px;&quot;&gt;&lt;b&gt;&lt;code&gt;fileID&lt;/code&gt; &lt;br&gt;&lt;/b&gt;&lt;/font&gt;&lt;/li&gt;&lt;li&gt;&lt;font style=&quot;font-size: 16px;&quot;&gt;&lt;b&gt;&lt;code&gt;filename&lt;/code&gt;&lt;/b&gt;&lt;/font&gt;&lt;/li&gt;&lt;li&gt; &lt;font style=&quot;font-size: 16px;&quot;&gt;&lt;b&gt;&lt;code&gt;encryptedContent&lt;/code&gt;, &lt;br&gt;&lt;/b&gt;&lt;/font&gt;&lt;/li&gt;&lt;li&gt;&lt;font style=&quot;font-size: 16px;&quot;&gt;&lt;b&gt;&lt;code&gt;signature&lt;/code&gt;.&lt;/b&gt;&lt;/font&gt;&lt;/li&gt;&lt;/ul&gt;" style="text;html=1;strokeColor=none;fillColor=none;align=left;verticalAlign=middle;spacingLeft=4;spacingRight=4;overflow=hidden;rotatable=0;points=[[0,0.5],[1,0.5]];portConstraint=eastwest;whiteSpace=wrap;" vertex="1" parent="vQBh3-ftXNwlG3UdboAN-0">
          <mxGeometry y="29" width="190" height="151" as="geometry" />
        </mxCell>
        <mxCell id="vQBh3-ftXNwlG3UdboAN-3" value="&lt;font style=&quot;font-size: 20px;&quot;&gt;User&lt;/font&gt;" style="swimlane;fontStyle=1;align=center;verticalAlign=middle;childLayout=stackLayout;horizontal=1;startSize=29;horizontalStack=0;resizeParent=1;resizeParentMax=0;resizeLast=0;collapsible=0;marginBottom=0;html=1;whiteSpace=wrap;" vertex="1" parent="WIyWlLk6GJQsqaUBKTNV-1">
          <mxGeometry x="-130" y="140" width="150" height="150" as="geometry" />
        </mxCell>
        <mxCell id="vQBh3-ftXNwlG3UdboAN-5" value="&lt;div style=&quot;font-size: 16px;&quot; align=&quot;left&quot;&gt;&lt;ul&gt;&lt;li&gt;&lt;font style=&quot;font-size: 16px;&quot;&gt;&lt;b&gt;Username&lt;/b&gt;&lt;/font&gt;&lt;/li&gt;&lt;li&gt;&lt;font style=&quot;font-size: 16px;&quot;&gt;&lt;b&gt;Password&lt;/b&gt;&lt;/font&gt;&lt;/li&gt;&lt;li&gt;&lt;font style=&quot;font-size: 16px;&quot;&gt;&lt;b&gt;Public Key&lt;/b&gt;&lt;/font&gt;&lt;/li&gt;&lt;li&gt;&lt;font style=&quot;font-size: 16px;&quot;&gt;&lt;b&gt;Private Key&lt;/b&gt;&lt;/font&gt;&lt;/li&gt;&lt;/ul&gt;&lt;/div&gt;" style="text;html=1;strokeColor=none;fillColor=none;align=left;verticalAlign=middle;spacingLeft=4;spacingRight=4;overflow=hidden;rotatable=0;points=[[0,0.5],[1,0.5]];portConstraint=eastwest;whiteSpace=wrap;" vertex="1" parent="vQBh3-ftXNwlG3UdboAN-3">
          <mxGeometry y="29" width="150" height="121" as="geometry" />
        </mxCell>
        <mxCell id="vQBh3-ftXNwlG3UdboAN-6" value="&lt;font style=&quot;font-size: 20px;&quot;&gt;Relaying Platform&lt;/font&gt;" style="swimlane;fontStyle=1;align=center;verticalAlign=middle;childLayout=stackLayout;horizontal=1;startSize=29;horizontalStack=0;resizeParent=1;resizeParentMax=0;resizeLast=0;collapsible=0;marginBottom=0;html=1;whiteSpace=wrap;" vertex="1" parent="WIyWlLk6GJQsqaUBKTNV-1">
          <mxGeometry x="150" y="100" width="370" height="260" as="geometry" />
        </mxCell>
        <mxCell id="vQBh3-ftXNwlG3UdboAN-8" value="&lt;ul style=&quot;font-size: 16px;&quot;&gt;&lt;li&gt;&lt;font style=&quot;font-size: 16px;&quot;&gt;&lt;b&gt;&lt;code&gt;generateKeyPair()&lt;/code&gt;&lt;/b&gt;&lt;/font&gt;&lt;/li&gt;&lt;li&gt;&lt;font style=&quot;font-size: 16px;&quot;&gt;&lt;b&gt;&lt;code&gt;exchangeKeys()&lt;/code&gt;&lt;/b&gt;&lt;/font&gt;&lt;/li&gt;&lt;li&gt;&lt;font style=&quot;font-size: 16px;&quot;&gt;&lt;b&gt;&lt;code&gt;authenticate()&lt;/code&gt;&lt;/b&gt;&lt;/font&gt;&lt;/li&gt;&lt;li&gt;&lt;font style=&quot;font-size: 16px;&quot;&gt;&lt;b&gt;&lt;code&gt;encrypt(file&lt;/code&gt;&lt;/b&gt;&lt;/font&gt;&lt;/li&gt;&lt;li&gt;&lt;font style=&quot;font-size: 16px;&quot;&gt;&lt;b&gt;&lt;code&gt;publicKey)&lt;/code&gt;&lt;/b&gt;&lt;/font&gt;&lt;/li&gt;&lt;li&gt;&lt;font style=&quot;font-size: 16px;&quot;&gt;&lt;b&gt;&lt;code&gt;decrypt(file, privateKey)&lt;/code&gt;&lt;/b&gt;&lt;/font&gt;&lt;/li&gt;&lt;li&gt;&lt;font style=&quot;font-size: 16px;&quot;&gt;&lt;b&gt;&lt;code&gt;sign(file, privateKey)&lt;/code&gt;&lt;code&gt;&lt;/code&gt;&lt;/b&gt;&lt;/font&gt;&lt;/li&gt;&lt;li&gt;&lt;font style=&quot;font-size: 16px;&quot;&gt;&lt;b&gt;&lt;code&gt;verifySignature(file, publicKey)&lt;/code&gt;&lt;br&gt;&lt;/b&gt;&lt;/font&gt;&lt;/li&gt;&lt;li&gt;&lt;font style=&quot;font-size: 16px;&quot;&gt;&lt;b&gt;&lt;code&gt;transmit(file)&lt;/code&gt;&lt;/b&gt;&lt;/font&gt;&lt;/li&gt;&lt;/ul&gt;" style="text;html=1;strokeColor=none;fillColor=none;align=left;verticalAlign=middle;spacingLeft=4;spacingRight=4;overflow=hidden;rotatable=0;points=[[0,0.5],[1,0.5]];portConstraint=eastwest;whiteSpace=wrap;" vertex="1" parent="vQBh3-ftXNwlG3UdboAN-6">
          <mxGeometry y="29" width="370" height="231" as="geometry" />
        </mxCell>
        <mxCell id="vQBh3-ftXNwlG3UdboAN-9" value="" style="shape=flexArrow;endArrow=classic;startArrow=classic;html=1;rounded=0;entryX=0;entryY=0.359;entryDx=0;entryDy=0;entryPerimeter=0;exitX=1.02;exitY=0.355;exitDx=0;exitDy=0;exitPerimeter=0;" edge="1" parent="WIyWlLk6GJQsqaUBKTNV-1" source="vQBh3-ftXNwlG3UdboAN-5" target="vQBh3-ftXNwlG3UdboAN-8">
          <mxGeometry width="100" height="100" relative="1" as="geometry">
            <mxPoint x="360" y="390" as="sourcePoint" />
            <mxPoint x="460" y="290" as="targetPoint" />
          </mxGeometry>
        </mxCell>
        <mxCell id="vQBh3-ftXNwlG3UdboAN-10" value="" style="shape=flexArrow;endArrow=classic;startArrow=classic;html=1;rounded=0;exitX=1;exitY=0.5;exitDx=0;exitDy=0;entryX=0;entryY=0.301;entryDx=0;entryDy=0;entryPerimeter=0;" edge="1" parent="WIyWlLk6GJQsqaUBKTNV-1" source="vQBh3-ftXNwlG3UdboAN-8" target="vQBh3-ftXNwlG3UdboAN-2">
          <mxGeometry width="100" height="100" relative="1" as="geometry">
            <mxPoint x="520" y="240" as="sourcePoint" />
            <mxPoint x="740" y="240" as="targetPoint" />
          </mxGeometry>
        </mxCell>
        <mxCell id="vQBh3-ftXNwlG3UdboAN-12" value="" style="shape=flexArrow;endArrow=classic;startArrow=classic;html=1;rounded=0;entryX=1;entryY=0.5;entryDx=0;entryDy=0;exitX=0;exitY=0.5;exitDx=0;exitDy=0;" edge="1" parent="WIyWlLk6GJQsqaUBKTNV-1" source="vQBh3-ftXNwlG3UdboAN-5" target="vQBh3-ftXNwlG3UdboAN-2">
          <mxGeometry width="100" height="100" relative="1" as="geometry">
            <mxPoint x="-210" y="220" as="sourcePoint" />
            <mxPoint x="764.99" y="331.46" as="targetPoint" />
            <Array as="points">
              <mxPoint x="-200" y="230" />
              <mxPoint x="-200" y="440" />
              <mxPoint x="527" y="440" />
              <mxPoint x="1000" y="430" />
              <mxPoint x="1000" y="275" />
            </Array>
          </mxGeometry>
        </mxCell>
        <mxCell id="vQBh3-ftXNwlG3UdboAN-14" value="&lt;h3 style=&quot;font-size: 16px;&quot;&gt;Class Diagram&lt;/h3&gt;&lt;p style=&quot;font-size: 16px;&quot;&gt;The Class Diagram illustrates the system&#39;s structure, including classes, attributes, and associations.&lt;/p&gt;&lt;p style=&quot;font-size: 16px;&quot;&gt;&lt;strong style=&quot;font-size: 16px;&quot;&gt;Classes and Attributes&lt;/strong&gt;:&lt;/p&gt;&lt;ul style=&quot;font-size: 16px;&quot;&gt;&lt;li style=&quot;font-size: 16px;&quot;&gt;&lt;strong style=&quot;font-size: 16px;&quot;&gt;User&lt;/strong&gt;&lt;ul style=&quot;font-size: 16px;&quot;&gt;&lt;li style=&quot;font-size: 16px;&quot;&gt;username&lt;/li&gt;&lt;li style=&quot;font-size: 16px;&quot;&gt;password&lt;/li&gt;&lt;/ul&gt;&lt;/li&gt;&lt;li style=&quot;font-size: 16px;&quot;&gt;&lt;strong style=&quot;font-size: 16px;&quot;&gt;File&lt;/strong&gt;&lt;ul style=&quot;font-size: 16px;&quot;&gt;&lt;li style=&quot;font-size: 16px;&quot;&gt;fileID&lt;/li&gt;&lt;li style=&quot;font-size: 16px;&quot;&gt;filename&lt;/li&gt;&lt;li style=&quot;font-size: 16px;&quot;&gt;fileContent (encrypted)&lt;/li&gt;&lt;/ul&gt;&lt;/li&gt;&lt;li style=&quot;font-size: 16px;&quot;&gt;&lt;strong style=&quot;font-size: 16px;&quot;&gt;RelayingPlatform&lt;/strong&gt;&lt;ul style=&quot;font-size: 16px;&quot;&gt;&lt;li style=&quot;font-size: 16px;&quot;&gt;encrypt(file)&lt;/li&gt;&lt;li style=&quot;font-size: 16px;&quot;&gt;decrypt(file)&lt;/li&gt;&lt;li style=&quot;font-size: 16px;&quot;&gt;transmit(file)&lt;/li&gt;&lt;/ul&gt;&lt;/li&gt;&lt;/ul&gt;" style="text;html=1;whiteSpace=wrap;overflow=hidden;rounded=0;fontStyle=1;fontSize=16;" vertex="1" parent="WIyWlLk6GJQsqaUBKTNV-1">
          <mxGeometry x="80" y="530" width="730" height="380" as="geometry" />
        </mxCell>
      </root>
    </mxGraphModel>
  </diagram>
</mxfile>
